<svg width="40" height="40" viewBox="0 0 40 40" fill="none" xmlns="http://www.w3.org/2000/svg">
<path d="M1.74951 35V30.3333C1.74951 29.4167 1.98562 28.5556 2.45785 27.75C2.93007 26.9444 3.58285 26.3333 4.41618 25.9167C5.83285 25.1944 7.43007 24.5833 9.20785 24.0833C10.9856 23.5833 12.944 23.3333 15.0828 23.3333C17.2217 23.3333 19.1801 23.5833 20.9578 24.0833C22.7356 24.5833 24.3328 25.1944 25.7495 25.9167C26.5828 26.3333 27.2356 26.9444 27.7078 27.75C28.1801 28.5556 28.4162 29.4167 28.4162 30.3333V35H1.74951ZM15.0828 21.6667C13.2495 21.6667 11.6801 21.0139 10.3745 19.7083C9.06896 18.4028 8.41618 16.8333 8.41618 15H7.16618V13.3333H8.41618C8.41618 12.0833 8.72173 10.9583 9.33285 9.95833C9.94396 8.95833 10.7495 8.16667 11.7495 7.58333V10H13.4162V6.91667C13.6662 6.83333 13.9301 6.77111 14.2078 6.73C14.4856 6.68889 14.7773 6.66778 15.0828 6.66667C15.3884 6.66556 15.6801 6.68667 15.9578 6.73C16.2356 6.77333 16.4995 6.83556 16.7495 6.91667V10H18.4162V7.58333C19.4162 8.16667 20.2217 8.95833 20.8328 9.95833C21.444 10.9583 21.7495 12.0833 21.7495 13.3333H22.9995V15H21.7495C21.7495 16.8333 21.0967 18.4028 19.7912 19.7083C18.4856 21.0139 16.9162 21.6667 15.0828 21.6667ZM15.0828 18.3333C15.9995 18.3333 16.7845 18.0072 17.4378 17.355C18.0912 16.7028 18.4173 15.9178 18.4162 15H11.7495C11.7495 15.9167 12.0762 16.7017 12.7295 17.355C13.3828 18.0083 14.1673 18.3344 15.0828 18.3333ZM27.5828 25L27.3328 23.75C27.1662 23.6944 27.0067 23.6322 26.8545 23.5633C26.7023 23.4944 26.5562 23.39 26.4162 23.25L25.2495 23.6667L24.4162 22.1667L25.3328 21.3333V20.3333L24.4162 19.5L25.2495 18L26.4162 18.4167C26.5273 18.3056 26.6662 18.2083 26.8328 18.125C26.9995 18.0417 27.1662 17.9722 27.3328 17.9167L27.5828 16.6667H29.2495L29.4995 17.9167C29.6662 17.9722 29.8328 18.0417 29.9995 18.125C30.1662 18.2083 30.3051 18.3056 30.4162 18.4167L31.5828 18L32.4162 19.5L31.4995 20.3333V21.3333L32.4162 22.1667L31.5828 23.6667L30.4162 23.25C30.2773 23.3889 30.1317 23.4933 29.9795 23.5633C29.8273 23.6333 29.6673 23.6956 29.4995 23.75L29.2495 25H27.5828ZM28.4162 22.0833C28.7495 22.0833 29.0412 21.9583 29.2912 21.7083C29.5412 21.4583 29.6662 21.1667 29.6662 20.8333C29.6662 20.5 29.5412 20.2083 29.2912 19.9583C29.0412 19.7083 28.7495 19.5833 28.4162 19.5833C28.0828 19.5833 27.7912 19.7083 27.5412 19.9583C27.2912 20.2083 27.1662 20.5 27.1662 20.8333C27.1662 21.1667 27.2912 21.4583 27.5412 21.7083C27.7912 21.9583 28.0828 22.0833 28.4162 22.0833ZM31.4162 16.6667L31.0828 14.9167C30.8328 14.8333 30.604 14.7294 30.3962 14.605C30.1884 14.4806 30.0006 14.3344 29.8328 14.1667L28.0828 14.75L26.9162 12.75L28.3328 11.5C28.2773 11.3611 28.2495 11.25 28.2495 11.1667V10.5C28.2495 10.4167 28.2773 10.3056 28.3328 10.1667L26.9162 8.91667L28.0828 6.91667L29.8328 7.5C29.9995 7.33333 30.1873 7.18722 30.3962 7.06167C30.6051 6.93611 30.834 6.83222 31.0828 6.75L31.4162 5H33.7495L34.0828 6.75C34.3328 6.83333 34.5623 6.93778 34.7712 7.06333C34.9801 7.18889 35.1673 7.33444 35.3328 7.5L37.0828 6.91667L38.2495 8.91667L36.8328 10.1667C36.8884 10.3056 36.9162 10.4167 36.9162 10.5V11.1667C36.9162 11.25 36.8884 11.3611 36.8328 11.5L38.2495 12.75L37.0828 14.75L35.3328 14.1667C35.1662 14.3333 34.979 14.4794 34.7712 14.605C34.5634 14.7306 34.334 14.8344 34.0828 14.9167L33.7495 16.6667H31.4162ZM32.5828 12.9167C33.1662 12.9167 33.6595 12.715 34.0628 12.3117C34.4662 11.9083 34.6673 11.4156 34.6662 10.8333C34.6651 10.2511 34.4634 9.75778 34.0612 9.35333C33.659 8.94889 33.1662 8.74778 32.5828 8.75C31.9995 8.75222 31.5062 8.95389 31.1028 9.355C30.6995 9.75611 30.4984 10.2489 30.4995 10.8333C30.5006 11.4178 30.7023 11.9111 31.1045 12.3133C31.5067 12.7156 31.9995 12.9167 32.5828 12.9167Z" fill="#301E74"/>
</svg>
