<svg width="47" height="30" viewBox="0 0 47 30" fill="none" xmlns="http://www.w3.org/2000/svg">
<path d="M16.439 18.6749L18.8391 16.1414L25.624 23.3034L23.2239 25.8368L16.439 18.6749ZM20.6451 12.4972C22.829 12.4972 24.6056 10.6219 24.6056 8.3166C24.6056 7.62382 24.4245 6.97881 24.1416 6.40548L21.0864 9.63049L19.4003 7.85076L22.4556 4.62575C21.9124 4.32713 21.3014 4.13602 20.6451 4.13602C18.4611 4.13602 16.6845 6.01131 16.6845 8.3166C16.6845 8.80632 16.7751 9.27216 16.9222 9.70216L14.8288 11.9119L12.8145 9.78577L13.618 8.93771L12.0224 7.25354L14.4214 4.7213C13.7849 4.05026 12.922 3.67334 12.0224 3.67334C11.1228 3.67334 10.26 4.05026 9.62349 4.7213L5.6177 8.94965L7.21322 10.6338H4.02217L3.21875 11.4819L7.22454 15.7102L8.02796 14.8622V11.4819L9.62349 13.1661L10.4269 12.318L12.4411 14.4441L4.05612 23.295L6.45507 25.8272L19.3324 12.2463C19.7398 12.4016 20.1811 12.4972 20.6451 12.4972Z" fill="#301E74"/>
<path d="M30.7101 5.27069H26.6641V25.7705H41.2296V5.27069H37.1836M29.0917 18.9372H38.802M32.3284 17.2289V20.6455M29.0917 13.8123H38.802M35.5652 12.1039V15.5206M30.7101 6.97901L29.9009 3.56238H37.9928L37.1836 6.97901H30.7101Z" stroke="#301E74" stroke-width="1.6184" stroke-linejoin="round"/>
</svg>
