<svg width="40" height="40" viewBox="0 0 40 40" fill="none" xmlns="http://www.w3.org/2000/svg">
<path d="M1.85693 33.4114V23.0686L10.9055 19.1914L19.9541 23.0714V33.4114L10.9055 37.2857L1.85693 33.4114Z" stroke="#301E74" stroke-width="2.85714" stroke-linecap="round" stroke-linejoin="round"/>
<path d="M1.85693 23.0489L10.9055 26.926L19.9541 23.0489M10.9055 8.92029L19.9512 12.8003L28.9998 8.92315" stroke="#301E74" stroke-width="2.85714" stroke-linecap="round" stroke-linejoin="round"/>
<path d="M19.9512 23.0485L28.9997 26.9256L38.0483 23.0485" stroke="#301E74" stroke-width="2.85714" stroke-linecap="round" stroke-linejoin="round"/>
<path d="M10.9058 26.9315V37.2887M29.0058 26.9315V37.2887M19.9515 12.8001V23.1544M10.9115 19.1858V8.84296L19.9572 4.96582L29.0058 8.84296V19.1858L19.9572 23.063L10.9115 19.1858ZM19.9515 33.4115V23.0687L29 19.1915L38.0486 23.0715V33.4115L29 37.2858L19.9515 33.4115Z" stroke="#301E74" stroke-width="2.85714" stroke-linecap="round" stroke-linejoin="round"/>
</svg>
